<svg id="Layer_1" data-name="Layer 1" xmlns="http://www.w3.org/2000/svg" viewBox="0 0 92 18.2">
  <title>logo</title>
  <g>
    <path d="M30.1,11.6a1.7,1.7,0,0,0-1.6.8,4.1,4.1,0,0,0-.5,2.1c0,1.9.7,2.9,2.1,2.9a7.4,7.4,0,0,0,2.2-.5v1.5a6,6,0,0,1-2.4.5,3.4,3.4,0,0,1-2.8-1.2,4.4,4.4,0,0,1-1-3.2,6,6,0,0,1,.5-2.4A4,4,0,0,1,28,10.6a3.6,3.6,0,0,1,2.1-.5,5.4,5.4,0,0,1,2.5.6L32,12.1l-.9-.4Z" transform="translate(-7.1 -5.5)" fill="#231f20"/>
    <path d="M40,18.8H38.2V14.9c0-.9-.3-1.4-1-1.4a1.3,1.3,0,0,0-1.1.5,3.7,3.7,0,0,0-.3,1.7v3.1H34V9.6h1.8v1.9a5.1,5.1,0,0,1-.1,1V13h.1a2.1,2.1,0,0,1,1.9-.9,2.2,2.2,0,0,1,1.7.6,2.4,2.4,0,0,1,.6,1.8Z" transform="translate(-7.1 -5.5)" fill="#231f20"/>
    <path d="M45.5,12.1h.6v1.7h-.5a2.1,2.1,0,0,0-1.4.4,1.6,1.6,0,0,0-.4,1.2v3.4H41.9V12.2h1.3l.3,1.1h.1a2.4,2.4,0,0,1,.8-.9A2,2,0,0,1,45.5,12.1Z" transform="translate(-7.1 -5.5)" fill="#231f20"/>
    <path d="M47.2,10.5c0-.6.4-.9,1-.9s1,.3,1,.9a.9.9,0,0,1-.3.7l-.7.2C47.6,11.4,47.2,11.1,47.2,10.5Zm1.9,8.3H47.3V12.2h1.8Z" transform="translate(-7.1 -5.5)" fill="#231f20"/>
    <path d="M55.6,16.8a1.8,1.8,0,0,1-.7,1.5,3.3,3.3,0,0,1-2.1.6H51.5l-.9-.3V17l1.1.4,1.1.2c.7,0,1-.2,1-.6s-.1-.2-.1-.3l-.5-.3-.8-.4-1.1-.6-.6-.6a2.5,2.5,0,0,1-.1-.9,1.4,1.4,0,0,1,.7-1.3,2.7,2.7,0,0,1,1.9-.5,6.4,6.4,0,0,1,2.3.5l-.6,1.3-.9-.4h-.8c-.6,0-.8.2-.8.4a.6.6,0,0,0,.2.5l1.1.5,1.2.6a1,1,0,0,1,.5.6A1.9,1.9,0,0,1,55.6,16.8Z" transform="translate(-7.1 -5.5)" fill="#231f20"/>
    <path d="M60.2,10.2h2.7a5.4,5.4,0,0,1,2.6.5,1.8,1.8,0,0,1,.8,1.7,2.1,2.1,0,0,1-.3,1.2,2.1,2.1,0,0,1-1,.6h0a1.7,1.7,0,0,1,1.2.6,2.9,2.9,0,0,1,.4,1.4,2,2,0,0,1-.9,1.8,3.9,3.9,0,0,1-2.3.7H60.2ZM62,13.6h1.1l1-.2a.8.8,0,0,0,.4-.8.7.7,0,0,0-.4-.7L63,11.7H62ZM62,15v2.3h1.2a1.6,1.6,0,0,0,1.1-.3,1,1,0,0,0,.4-.9c0-.7-.5-1.1-1.6-1.1Z" transform="translate(-7.1 -5.5)" fill="#fafbfb"/>
    <path d="M74.1,15.5a3.5,3.5,0,0,1-.9,2.5,2.9,2.9,0,0,1-2.3.9,4.7,4.7,0,0,1-1.7-.4,3.2,3.2,0,0,1-1.1-1.2,4.8,4.8,0,0,1-.4-1.8,3.3,3.3,0,0,1,.9-2.5,2.9,2.9,0,0,1,2.3-.9,3.1,3.1,0,0,1,1.7.4,3.2,3.2,0,0,1,1.1,1.2A3.4,3.4,0,0,1,74.1,15.5Zm-4.5,0a2.6,2.6,0,0,0,.3,1.4c.2.4.5.5,1,.5s.8-.1,1-.5a2.6,2.6,0,0,0,.4-1.4,2.7,2.7,0,0,0-.4-1.5,1.3,1.3,0,0,0-2,0A2.8,2.8,0,0,0,69.6,15.5Z" transform="translate(-7.1 -5.5)" fill="#fafbfb"/>
    <path d="M74.5,12.2h2l1.2,3.7a3.6,3.6,0,0,1,.2,1.1h0l.3-1.1,1.2-3.7h1.9l-2.7,7.4a3.7,3.7,0,0,1-1.1,1.5,2.5,2.5,0,0,1-1.7.5h-.9V20.1h.7a1.1,1.1,0,0,0,.8-.3A1.5,1.5,0,0,0,77,19v-.3Z" transform="translate(-7.1 -5.5)" fill="#fafbfb"/>
    <path d="M84.3,18.9a2.3,2.3,0,0,1-1.8-.9,4.4,4.4,0,0,1-.6-2.5,4.4,4.4,0,0,1,.6-2.5,2.5,2.5,0,0,1,3.8,0h0a5.7,5.7,0,0,1-.1-1.3V9.6H88v9.2H86.6l-.3-.9h-.1A2,2,0,0,1,84.3,18.9Zm.7-1.4a1.5,1.5,0,0,0,1-.4,2.6,2.6,0,0,0,.3-1.4v-.2A2.8,2.8,0,0,0,86,14a1.3,1.3,0,0,0-1.1-.5,1.1,1.1,0,0,0-.9.5,3.3,3.3,0,0,0-.3,1.5A3.1,3.1,0,0,0,84,17,1.2,1.2,0,0,0,85,17.5Z" transform="translate(-7.1 -5.5)" fill="#fafbfb"/>
  </g>
  <path d="M14.6,5.8,7.3,13.4c-.9.9.6,2.3,1.4,1.4L16,7.2a1,1,0,0,0-1.4-1.4Z" transform="translate(-7.1 -5.5)" fill="#231f20"/>
  <path d="M15.8,21.6,8.7,13.4c-.8-1-2.2.4-1.4,1.4l7.1,8.3c.8.9,2.3-.5,1.4-1.5Z" transform="translate(-7.1 -5.5)" fill="#231f20"/>
  <path d="M90.2,7.5l7.2,7.6a1,1,0,0,0,1.4-1.4L91.6,6.1a1,1,0,0,0-1.4,1.4Z" transform="translate(-7.1 -5.5)" fill="#231f20"/>
  <path d="M91.7,23.3l7.1-8.2c.8-1-.6-2.4-1.4-1.4l-7.1,8.2c-.8,1,.6,2.4,1.4,1.4Z" transform="translate(-7.1 -5.5)" fill="#231f20"/>
  <path d="M24.4,7,17.7,21.4c-.6,1.1,1.2,2.2,1.7,1L26.1,8c.5-1.1-1.2-2.1-1.7-1Z" transform="translate(-7.1 -5.5)" fill="#231f20"/>
</svg>
