<?xml version="1.0" standalone="no"?>
<!DOCTYPE svg PUBLIC "-//W3C//DTD SVG 20010904//EN"
 "http://www.w3.org/TR/2001/REC-SVG-20010904/DTD/svg10.dtd">
<svg version="1.0" xmlns="http://www.w3.org/2000/svg"
 width="960.000000pt" height="960.000000pt" viewBox="0 0 960.000000 960.000000"
 preserveAspectRatio="xMidYMid meet">
<metadata>
Created by potrace 1.11, written by Peter Selinger 2001-2013
</metadata>
<g transform="translate(0.000000,960.000000) scale(0.100000,-0.100000)"
fill="#000000" stroke="none">
<path d="M2580 7709 c-100 -16 -121 -32 -362 -290 -58 -63 -136 -145 -173
-184 -37 -38 -101 -106 -143 -151 -43 -44 -144 -152 -227 -239 -82 -87 -166
-174 -185 -195 -179 -190 -323 -342 -360 -380 -25 -26 -101 -106 -170 -179
-69 -74 -145 -155 -170 -181 -25 -26 -110 -116 -190 -200 -80 -84 -163 -172
-185 -195 -329 -345 -341 -359 -371 -417 -45 -89 -36 -207 23 -302 23 -37 142
-185 182 -227 9 -10 32 -36 51 -60 19 -23 49 -58 67 -76 17 -18 30 -33 28 -33
-2 0 7 -12 22 -27 14 -16 39 -45 57 -67 17 -21 36 -43 42 -50 9 -9 238 -277
334 -390 14 -16 32 -37 40 -46 8 -9 32 -37 53 -63 21 -25 43 -52 50 -59 18
-20 117 -135 182 -213 32 -38 61 -72 64 -75 9 -8 72 -80 121 -140 25 -30 55
-65 68 -78 12 -12 22 -25 22 -28 0 -3 10 -15 23 -28 12 -13 31 -34 42 -47 21
-26 300 -352 374 -438 25 -30 57 -67 71 -84 14 -17 35 -41 47 -54 11 -13 36
-43 55 -65 18 -23 42 -51 53 -62 11 -12 42 -48 69 -81 27 -33 54 -64 60 -70 6
-5 31 -35 56 -65 25 -30 52 -61 60 -70 8 -9 33 -37 54 -63 103 -124 262 -130
390 -15 91 80 136 182 131 293 -3 75 -29 132 -97 211 -29 34 -60 70 -68 80
-24 29 -204 238 -210 244 -3 3 -25 30 -50 60 -25 30 -50 60 -56 65 -6 6 -76
87 -155 180 -79 94 -148 175 -154 181 -5 6 -29 33 -51 60 -23 27 -52 60 -63
74 -12 14 -34 40 -49 58 -15 18 -38 45 -52 60 -14 15 -47 54 -74 87 -28 33
-57 67 -65 76 -9 9 -34 38 -56 65 -22 26 -52 62 -67 79 -29 32 -47 52 -111
130 -83 97 -188 220 -205 240 -11 11 -47 54 -82 95 -35 41 -66 77 -69 80 -3 3
-28 32 -56 65 -64 76 -85 102 -110 130 -11 12 -40 46 -65 76 -25 29 -55 63
-67 76 -11 13 -35 41 -53 63 -17 21 -42 51 -56 67 -13 15 -24 30 -24 33 0 6
67 78 195 212 50 52 153 161 230 243 77 81 163 171 190 200 28 29 111 117 185
196 74 78 155 164 180 190 25 26 106 112 180 190 74 79 149 157 165 174 17 18
91 96 165 175 74 78 158 166 185 195 28 29 109 114 180 190 72 76 148 157 170
179 88 91 125 140 140 186 18 54 22 136 10 190 -25 116 -128 216 -240 235 -66
11 -78 11 -125 4z"/>
<path d="M6892 7604 c-165 -43 -257 -193 -230 -375 8 -51 46 -123 82 -158 17
-15 88 -88 158 -162 69 -74 171 -180 225 -236 54 -55 179 -186 278 -289 99
-103 225 -235 280 -292 55 -57 129 -134 165 -172 36 -37 149 -155 251 -261
103 -107 217 -225 254 -264 36 -38 143 -150 237 -247 253 -264 278 -290 278
-295 0 -3 -15 -22 -32 -42 -18 -20 -52 -59 -75 -86 -23 -28 -50 -59 -60 -71
-10 -12 -43 -50 -73 -84 -30 -35 -64 -74 -75 -86 -11 -13 -36 -42 -55 -64 -19
-23 -44 -52 -55 -64 -11 -12 -47 -53 -80 -91 -32 -39 -66 -77 -75 -86 -8 -9
-24 -27 -35 -40 -62 -75 -122 -145 -135 -159 -18 -19 -121 -138 -190 -220 -12
-14 -37 -42 -56 -62 -19 -20 -34 -39 -34 -42 0 -2 -18 -23 -40 -45 -22 -22
-40 -45 -40 -50 0 -5 -4 -11 -9 -13 -4 -1 -41 -41 -81 -88 -40 -47 -77 -86
-81 -88 -5 -2 -9 -7 -9 -12 0 -5 -12 -21 -27 -37 -30 -31 -56 -61 -143 -163
-30 -36 -59 -70 -65 -76 -5 -6 -32 -37 -60 -69 -27 -31 -57 -65 -65 -74 -15
-17 -115 -132 -160 -185 -14 -16 -36 -41 -49 -55 -12 -14 -39 -46 -60 -70 -20
-24 -41 -49 -46 -55 -154 -166 -198 -244 -198 -356 1 -67 29 -162 62 -203 104
-132 239 -178 356 -123 57 27 108 77 234 230 9 10 27 30 39 45 13 14 47 53 75
85 29 33 61 70 72 82 11 12 29 33 39 46 32 38 119 140 146 169 14 16 32 36 40
45 63 75 95 113 118 139 28 30 139 159 178 205 12 14 73 84 135 156 63 72 133
153 156 180 48 56 74 87 111 129 42 47 146 168 157 183 6 7 22 25 36 40 22 23
56 62 179 206 14 16 30 34 35 40 6 6 34 40 64 76 30 36 60 70 65 75 6 6 36 39
66 75 30 36 69 81 87 100 34 38 48 54 104 121 21 24 48 56 60 70 13 14 47 52
74 84 91 107 126 148 141 162 8 8 14 18 14 23 0 5 6 15 13 22 29 31 37 72 37
196 0 148 0 147 -121 273 -41 42 -153 158 -249 259 -96 100 -200 208 -230 240
-30 31 -138 144 -240 250 -102 106 -214 223 -250 260 -36 37 -144 150 -240
250 -96 101 -200 209 -230 240 -30 32 -138 144 -240 250 -102 106 -220 229
-263 274 -43 45 -145 150 -225 235 -115 120 -158 159 -199 177 -65 29 -152 36
-221 18z"/>
<path d="M5798 7409 c-10 -6 -18 -7 -18 -4 0 3 -17 -3 -37 -14 -52 -27 -104
-80 -130 -132 -73 -150 -113 -238 -113 -248 0 -6 -5 -11 -12 -11 -6 0 -9 -3
-5 -6 3 -4 -4 -25 -15 -48 -12 -22 -23 -43 -23 -46 -3 -12 -26 -62 -73 -160
-28 -58 -61 -130 -75 -160 -47 -106 -99 -215 -108 -230 -5 -8 -12 -22 -15 -30
-10 -24 -43 -98 -91 -200 -25 -52 -58 -124 -75 -160 -75 -162 -129 -280 -181
-390 -17 -36 -31 -67 -32 -70 -1 -3 -19 -41 -39 -85 -21 -44 -51 -107 -66
-140 -15 -33 -60 -130 -100 -215 -77 -165 -117 -252 -157 -340 -24 -53 -40
-87 -148 -315 -26 -55 -58 -122 -70 -150 -12 -27 -38 -84 -58 -125 -19 -41
-77 -167 -130 -280 -88 -191 -128 -276 -205 -440 -16 -36 -44 -96 -62 -135
-32 -71 -70 -151 -131 -280 -18 -38 -33 -72 -34 -75 -1 -3 -10 -23 -20 -45
-10 -22 -18 -43 -17 -48 1 -4 -3 -7 -8 -7 -6 0 -10 -4 -10 -10 0 -5 -16 -42
-35 -82 -20 -40 -36 -74 -35 -76 0 -1 -6 -15 -14 -30 -51 -98 -53 -220 -5
-321 26 -55 113 -143 169 -170 117 -56 238 -40 313 43 25 27 80 133 179 346
17 36 45 97 63 135 19 39 49 104 68 145 19 41 49 107 68 145 18 39 34 72 34
75 1 3 20 44 42 91 83 172 123 260 123 269 0 6 5 10 10 10 6 0 10 5 10 11 0
11 23 64 78 179 20 41 37 77 37 80 1 3 21 46 44 95 44 92 83 176 147 313 20
42 56 118 79 167 24 50 56 119 73 155 16 36 49 106 72 155 44 94 84 181 140
300 65 139 141 301 174 370 18 39 44 93 56 120 13 28 43 93 68 145 25 52 46
97 47 100 1 5 26 58 97 210 72 150 115 242 148 314 17 37 45 97 63 134 19 37
34 70 36 74 1 4 20 47 43 95 23 49 43 90 43 93 1 3 20 43 42 90 179 375 186
393 187 470 0 71 -29 179 -51 187 -7 3 -13 11 -13 18 0 32 -123 118 -197 140
-41 11 -128 14 -145 4z"/>
</g>
</svg>
